<mxfile host="65bd71144e">
    <diagram id="NKAbQJkbTD7azodyq8ZC" name="Page-1">
        <mxGraphModel dx="2607" dy="946" grid="1" gridSize="10" guides="1" tooltips="1" connect="1" arrows="1" fold="1" page="1" pageScale="1" pageWidth="850" pageHeight="1100" math="0" shadow="0">
            <root>
                <mxCell id="0"/>
                <mxCell id="1" parent="0"/>
                <mxCell id="307" value="User" style="shape=table;startSize=30;container=1;collapsible=0;childLayout=tableLayout;fontStyle=1;align=center;" parent="1" vertex="1">
                    <mxGeometry x="30" y="200" width="200" height="270" as="geometry"/>
                </mxCell>
                <mxCell id="308" value="" style="shape=tableRow;horizontal=0;startSize=0;swimlaneHead=0;swimlaneBody=0;top=0;left=0;bottom=0;right=0;collapsible=0;dropTarget=0;fillColor=none;points=[[0,0.5],[1,0.5]];portConstraint=eastwest;" parent="307" vertex="1">
                    <mxGeometry y="30" width="200" height="40" as="geometry"/>
                </mxCell>
                <mxCell id="309" value="id" style="shape=partialRectangle;html=1;whiteSpace=wrap;connectable=0;fillColor=none;top=0;left=0;bottom=0;right=0;overflow=hidden;" parent="308" vertex="1">
                    <mxGeometry width="106" height="40" as="geometry">
                        <mxRectangle width="106" height="40" as="alternateBounds"/>
                    </mxGeometry>
                </mxCell>
                <mxCell id="310" value="Integer" style="shape=partialRectangle;html=1;whiteSpace=wrap;connectable=0;fillColor=none;top=0;left=0;bottom=0;right=0;overflow=hidden;" parent="308" vertex="1">
                    <mxGeometry x="106" width="94" height="40" as="geometry">
                        <mxRectangle width="94" height="40" as="alternateBounds"/>
                    </mxGeometry>
                </mxCell>
                <mxCell id="314" value="" style="shape=tableRow;horizontal=0;startSize=0;swimlaneHead=0;swimlaneBody=0;top=0;left=0;bottom=0;right=0;collapsible=0;dropTarget=0;fillColor=none;points=[[0,0.5],[1,0.5]];portConstraint=eastwest;" parent="307" vertex="1">
                    <mxGeometry y="70" width="200" height="40" as="geometry"/>
                </mxCell>
                <mxCell id="315" value="username" style="shape=partialRectangle;html=1;whiteSpace=wrap;connectable=0;fillColor=none;top=0;left=0;bottom=0;right=0;overflow=hidden;" parent="314" vertex="1">
                    <mxGeometry width="106" height="40" as="geometry">
                        <mxRectangle width="106" height="40" as="alternateBounds"/>
                    </mxGeometry>
                </mxCell>
                <mxCell id="316" value="String" style="shape=partialRectangle;html=1;whiteSpace=wrap;connectable=0;fillColor=none;top=0;left=0;bottom=0;right=0;overflow=hidden;" parent="314" vertex="1">
                    <mxGeometry x="106" width="94" height="40" as="geometry">
                        <mxRectangle width="94" height="40" as="alternateBounds"/>
                    </mxGeometry>
                </mxCell>
                <mxCell id="317" value="" style="shape=tableRow;horizontal=0;startSize=0;swimlaneHead=0;swimlaneBody=0;top=0;left=0;bottom=0;right=0;collapsible=0;dropTarget=0;fillColor=none;points=[[0,0.5],[1,0.5]];portConstraint=eastwest;" parent="307" vertex="1">
                    <mxGeometry y="110" width="200" height="40" as="geometry"/>
                </mxCell>
                <mxCell id="318" value="password_hash" style="shape=partialRectangle;html=1;whiteSpace=wrap;connectable=0;fillColor=none;top=0;left=0;bottom=0;right=0;overflow=hidden;" parent="317" vertex="1">
                    <mxGeometry width="106" height="40" as="geometry">
                        <mxRectangle width="106" height="40" as="alternateBounds"/>
                    </mxGeometry>
                </mxCell>
                <mxCell id="319" value="String" style="shape=partialRectangle;html=1;whiteSpace=wrap;connectable=0;fillColor=none;top=0;left=0;bottom=0;right=0;overflow=hidden;" parent="317" vertex="1">
                    <mxGeometry x="106" width="94" height="40" as="geometry">
                        <mxRectangle width="94" height="40" as="alternateBounds"/>
                    </mxGeometry>
                </mxCell>
                <mxCell id="320" value="" style="shape=tableRow;horizontal=0;startSize=0;swimlaneHead=0;swimlaneBody=0;top=0;left=0;bottom=0;right=0;collapsible=0;dropTarget=0;fillColor=none;points=[[0,0.5],[1,0.5]];portConstraint=eastwest;" parent="307" vertex="1">
                    <mxGeometry y="150" width="200" height="40" as="geometry"/>
                </mxCell>
                <mxCell id="321" value="email" style="shape=partialRectangle;html=1;whiteSpace=wrap;connectable=0;fillColor=none;top=0;left=0;bottom=0;right=0;overflow=hidden;" parent="320" vertex="1">
                    <mxGeometry width="106" height="40" as="geometry">
                        <mxRectangle width="106" height="40" as="alternateBounds"/>
                    </mxGeometry>
                </mxCell>
                <mxCell id="322" value="String" style="shape=partialRectangle;html=1;whiteSpace=wrap;connectable=0;fillColor=none;top=0;left=0;bottom=0;right=0;overflow=hidden;" parent="320" vertex="1">
                    <mxGeometry x="106" width="94" height="40" as="geometry">
                        <mxRectangle width="94" height="40" as="alternateBounds"/>
                    </mxGeometry>
                </mxCell>
                <mxCell id="426" style="shape=tableRow;horizontal=0;startSize=0;swimlaneHead=0;swimlaneBody=0;top=0;left=0;bottom=0;right=0;collapsible=0;dropTarget=0;fillColor=none;points=[[0,0.5],[1,0.5]];portConstraint=eastwest;" parent="307" vertex="1">
                    <mxGeometry y="190" width="200" height="40" as="geometry"/>
                </mxCell>
                <mxCell id="427" value="created_at" style="shape=partialRectangle;html=1;whiteSpace=wrap;connectable=0;fillColor=none;top=0;left=0;bottom=0;right=0;overflow=hidden;" parent="426" vertex="1">
                    <mxGeometry width="106" height="40" as="geometry">
                        <mxRectangle width="106" height="40" as="alternateBounds"/>
                    </mxGeometry>
                </mxCell>
                <mxCell id="428" value="DateTime" style="shape=partialRectangle;html=1;whiteSpace=wrap;connectable=0;fillColor=none;top=0;left=0;bottom=0;right=0;overflow=hidden;" parent="426" vertex="1">
                    <mxGeometry x="106" width="94" height="40" as="geometry">
                        <mxRectangle width="94" height="40" as="alternateBounds"/>
                    </mxGeometry>
                </mxCell>
                <mxCell id="429" style="shape=tableRow;horizontal=0;startSize=0;swimlaneHead=0;swimlaneBody=0;top=0;left=0;bottom=0;right=0;collapsible=0;dropTarget=0;fillColor=none;points=[[0,0.5],[1,0.5]];portConstraint=eastwest;" parent="307" vertex="1">
                    <mxGeometry y="230" width="200" height="40" as="geometry"/>
                </mxCell>
                <mxCell id="430" value="last_login" style="shape=partialRectangle;html=1;whiteSpace=wrap;connectable=0;fillColor=none;top=0;left=0;bottom=0;right=0;overflow=hidden;" parent="429" vertex="1">
                    <mxGeometry width="106" height="40" as="geometry">
                        <mxRectangle width="106" height="40" as="alternateBounds"/>
                    </mxGeometry>
                </mxCell>
                <mxCell id="431" value="DateTime" style="shape=partialRectangle;html=1;whiteSpace=wrap;connectable=0;fillColor=none;top=0;left=0;bottom=0;right=0;overflow=hidden;" parent="429" vertex="1">
                    <mxGeometry x="106" width="94" height="40" as="geometry">
                        <mxRectangle width="94" height="40" as="alternateBounds"/>
                    </mxGeometry>
                </mxCell>
                <mxCell id="323" value="RecipeIngredients" style="shape=table;startSize=30;container=1;collapsible=0;childLayout=tableLayout;fontStyle=1;align=center;" parent="1" vertex="1">
                    <mxGeometry x="590" y="160" width="190" height="267" as="geometry"/>
                </mxCell>
                <mxCell id="324" value="" style="shape=tableRow;horizontal=0;startSize=0;swimlaneHead=0;swimlaneBody=0;top=0;left=0;bottom=0;right=0;collapsible=0;dropTarget=0;fillColor=none;points=[[0,0.5],[1,0.5]];portConstraint=eastwest;" parent="323" vertex="1">
                    <mxGeometry y="30" width="190" height="60" as="geometry"/>
                </mxCell>
                <mxCell id="325" value="recipe_id" style="shape=partialRectangle;html=1;whiteSpace=wrap;connectable=0;fillColor=none;top=0;left=0;bottom=0;right=0;overflow=hidden;" parent="324" vertex="1">
                    <mxGeometry width="120" height="60" as="geometry">
                        <mxRectangle width="120" height="60" as="alternateBounds"/>
                    </mxGeometry>
                </mxCell>
                <mxCell id="326" value="Integer" style="shape=partialRectangle;html=1;whiteSpace=wrap;connectable=0;fillColor=none;top=0;left=0;bottom=0;right=0;overflow=hidden;" parent="324" vertex="1">
                    <mxGeometry x="120" width="70" height="60" as="geometry">
                        <mxRectangle width="70" height="60" as="alternateBounds"/>
                    </mxGeometry>
                </mxCell>
                <mxCell id="327" value="" style="shape=tableRow;horizontal=0;startSize=0;swimlaneHead=0;swimlaneBody=0;top=0;left=0;bottom=0;right=0;collapsible=0;dropTarget=0;fillColor=none;points=[[0,0.5],[1,0.5]];portConstraint=eastwest;" parent="323" vertex="1">
                    <mxGeometry y="90" width="190" height="59" as="geometry"/>
                </mxCell>
                <mxCell id="328" value="ingredient_id" style="shape=partialRectangle;html=1;whiteSpace=wrap;connectable=0;fillColor=none;top=0;left=0;bottom=0;right=0;overflow=hidden;" parent="327" vertex="1">
                    <mxGeometry width="120" height="59" as="geometry">
                        <mxRectangle width="120" height="59" as="alternateBounds"/>
                    </mxGeometry>
                </mxCell>
                <mxCell id="329" value="Integer" style="shape=partialRectangle;html=1;whiteSpace=wrap;connectable=0;fillColor=none;top=0;left=0;bottom=0;right=0;overflow=hidden;" parent="327" vertex="1">
                    <mxGeometry x="120" width="70" height="59" as="geometry">
                        <mxRectangle width="70" height="59" as="alternateBounds"/>
                    </mxGeometry>
                </mxCell>
                <mxCell id="330" value="" style="shape=tableRow;horizontal=0;startSize=0;swimlaneHead=0;swimlaneBody=0;top=0;left=0;bottom=0;right=0;collapsible=0;dropTarget=0;fillColor=none;points=[[0,0.5],[1,0.5]];portConstraint=eastwest;" parent="323" vertex="1">
                    <mxGeometry y="149" width="190" height="60" as="geometry"/>
                </mxCell>
                <mxCell id="331" value="quantity" style="shape=partialRectangle;html=1;whiteSpace=wrap;connectable=0;fillColor=none;top=0;left=0;bottom=0;right=0;overflow=hidden;" parent="330" vertex="1">
                    <mxGeometry width="120" height="60" as="geometry">
                        <mxRectangle width="120" height="60" as="alternateBounds"/>
                    </mxGeometry>
                </mxCell>
                <mxCell id="332" value="Float" style="shape=partialRectangle;html=1;whiteSpace=wrap;connectable=0;fillColor=none;top=0;left=0;bottom=0;right=0;overflow=hidden;" parent="330" vertex="1">
                    <mxGeometry x="120" width="70" height="60" as="geometry">
                        <mxRectangle width="70" height="60" as="alternateBounds"/>
                    </mxGeometry>
                </mxCell>
                <mxCell id="333" value="" style="shape=tableRow;horizontal=0;startSize=0;swimlaneHead=0;swimlaneBody=0;top=0;left=0;bottom=0;right=0;collapsible=0;dropTarget=0;fillColor=none;points=[[0,0.5],[1,0.5]];portConstraint=eastwest;" parent="323" vertex="1">
                    <mxGeometry y="209" width="190" height="58" as="geometry"/>
                </mxCell>
                <mxCell id="334" value="unit" style="shape=partialRectangle;html=1;whiteSpace=wrap;connectable=0;fillColor=none;top=0;left=0;bottom=0;right=0;overflow=hidden;" parent="333" vertex="1">
                    <mxGeometry width="120" height="58" as="geometry">
                        <mxRectangle width="120" height="58" as="alternateBounds"/>
                    </mxGeometry>
                </mxCell>
                <mxCell id="335" value="String" style="shape=partialRectangle;html=1;whiteSpace=wrap;connectable=0;fillColor=none;top=0;left=0;bottom=0;right=0;overflow=hidden;" parent="333" vertex="1">
                    <mxGeometry x="120" width="70" height="58" as="geometry">
                        <mxRectangle width="70" height="58" as="alternateBounds"/>
                    </mxGeometry>
                </mxCell>
                <mxCell id="357" value="Ingredient" style="shape=table;startSize=30;container=1;collapsible=0;childLayout=tableLayout;fontStyle=1;align=center;" parent="1" vertex="1">
                    <mxGeometry x="315" y="400" width="180" height="189" as="geometry"/>
                </mxCell>
                <mxCell id="358" value="" style="shape=tableRow;horizontal=0;startSize=0;swimlaneHead=0;swimlaneBody=0;top=0;left=0;bottom=0;right=0;collapsible=0;dropTarget=0;fillColor=none;points=[[0,0.5],[1,0.5]];portConstraint=eastwest;" parent="357" vertex="1">
                    <mxGeometry y="30" width="180" height="40" as="geometry"/>
                </mxCell>
                <mxCell id="359" value="id" style="shape=partialRectangle;html=1;whiteSpace=wrap;connectable=0;fillColor=none;top=0;left=0;bottom=0;right=0;overflow=hidden;" parent="358" vertex="1">
                    <mxGeometry width="101" height="40" as="geometry">
                        <mxRectangle width="101" height="40" as="alternateBounds"/>
                    </mxGeometry>
                </mxCell>
                <mxCell id="360" value="Integer" style="shape=partialRectangle;html=1;whiteSpace=wrap;connectable=0;fillColor=none;top=0;left=0;bottom=0;right=0;overflow=hidden;" parent="358" vertex="1">
                    <mxGeometry x="101" width="79" height="40" as="geometry">
                        <mxRectangle width="79" height="40" as="alternateBounds"/>
                    </mxGeometry>
                </mxCell>
                <mxCell id="361" value="" style="shape=tableRow;horizontal=0;startSize=0;swimlaneHead=0;swimlaneBody=0;top=0;left=0;bottom=0;right=0;collapsible=0;dropTarget=0;fillColor=none;points=[[0,0.5],[1,0.5]];portConstraint=eastwest;" parent="357" vertex="1">
                    <mxGeometry y="70" width="180" height="40" as="geometry"/>
                </mxCell>
                <mxCell id="362" value="name" style="shape=partialRectangle;html=1;whiteSpace=wrap;connectable=0;fillColor=none;top=0;left=0;bottom=0;right=0;overflow=hidden;" parent="361" vertex="1">
                    <mxGeometry width="101" height="40" as="geometry">
                        <mxRectangle width="101" height="40" as="alternateBounds"/>
                    </mxGeometry>
                </mxCell>
                <mxCell id="363" value="String" style="shape=partialRectangle;html=1;whiteSpace=wrap;connectable=0;fillColor=none;top=0;left=0;bottom=0;right=0;overflow=hidden;" parent="361" vertex="1">
                    <mxGeometry x="101" width="79" height="40" as="geometry">
                        <mxRectangle width="79" height="40" as="alternateBounds"/>
                    </mxGeometry>
                </mxCell>
                <mxCell id="364" value="" style="shape=tableRow;horizontal=0;startSize=0;swimlaneHead=0;swimlaneBody=0;top=0;left=0;bottom=0;right=0;collapsible=0;dropTarget=0;fillColor=none;points=[[0,0.5],[1,0.5]];portConstraint=eastwest;" parent="357" vertex="1">
                    <mxGeometry y="110" width="180" height="40" as="geometry"/>
                </mxCell>
                <mxCell id="365" value="category" style="shape=partialRectangle;html=1;whiteSpace=wrap;connectable=0;fillColor=none;top=0;left=0;bottom=0;right=0;overflow=hidden;" parent="364" vertex="1">
                    <mxGeometry width="101" height="40" as="geometry">
                        <mxRectangle width="101" height="40" as="alternateBounds"/>
                    </mxGeometry>
                </mxCell>
                <mxCell id="366" value="String" style="shape=partialRectangle;html=1;whiteSpace=wrap;connectable=0;fillColor=none;top=0;left=0;bottom=0;right=0;overflow=hidden;" parent="364" vertex="1">
                    <mxGeometry x="101" width="79" height="40" as="geometry">
                        <mxRectangle width="79" height="40" as="alternateBounds"/>
                    </mxGeometry>
                </mxCell>
                <mxCell id="367" value="" style="shape=tableRow;horizontal=0;startSize=0;swimlaneHead=0;swimlaneBody=0;top=0;left=0;bottom=0;right=0;collapsible=0;dropTarget=0;fillColor=none;points=[[0,0.5],[1,0.5]];portConstraint=eastwest;" parent="357" vertex="1">
                    <mxGeometry y="150" width="180" height="39" as="geometry"/>
                </mxCell>
                <mxCell id="368" value="storage_info" style="shape=partialRectangle;html=1;whiteSpace=wrap;connectable=0;fillColor=none;top=0;left=0;bottom=0;right=0;overflow=hidden;" parent="367" vertex="1">
                    <mxGeometry width="101" height="39" as="geometry">
                        <mxRectangle width="101" height="39" as="alternateBounds"/>
                    </mxGeometry>
                </mxCell>
                <mxCell id="369" value="String" style="shape=partialRectangle;html=1;whiteSpace=wrap;connectable=0;fillColor=none;top=0;left=0;bottom=0;right=0;overflow=hidden;" parent="367" vertex="1">
                    <mxGeometry x="101" width="79" height="39" as="geometry">
                        <mxRectangle width="79" height="39" as="alternateBounds"/>
                    </mxGeometry>
                </mxCell>
                <mxCell id="376" value="Recipe" style="shape=table;startSize=30;container=1;collapsible=0;childLayout=tableLayout;fontStyle=1;align=center;" parent="1" vertex="1">
                    <mxGeometry x="300" y="40" width="210" height="270" as="geometry"/>
                </mxCell>
                <mxCell id="377" value="" style="shape=tableRow;horizontal=0;startSize=0;swimlaneHead=0;swimlaneBody=0;top=0;left=0;bottom=0;right=0;collapsible=0;dropTarget=0;fillColor=none;points=[[0,0.5],[1,0.5]];portConstraint=eastwest;" parent="376" vertex="1">
                    <mxGeometry y="30" width="210" height="40" as="geometry"/>
                </mxCell>
                <mxCell id="378" value="id" style="shape=partialRectangle;html=1;whiteSpace=wrap;connectable=0;fillColor=none;top=0;left=0;bottom=0;right=0;overflow=hidden;" parent="377" vertex="1">
                    <mxGeometry width="118" height="40" as="geometry">
                        <mxRectangle width="118" height="40" as="alternateBounds"/>
                    </mxGeometry>
                </mxCell>
                <mxCell id="379" value="Integer" style="shape=partialRectangle;html=1;whiteSpace=wrap;connectable=0;fillColor=none;top=0;left=0;bottom=0;right=0;overflow=hidden;" parent="377" vertex="1">
                    <mxGeometry x="118" width="92" height="40" as="geometry">
                        <mxRectangle width="92" height="40" as="alternateBounds"/>
                    </mxGeometry>
                </mxCell>
                <mxCell id="380" value="" style="shape=tableRow;horizontal=0;startSize=0;swimlaneHead=0;swimlaneBody=0;top=0;left=0;bottom=0;right=0;collapsible=0;dropTarget=0;fillColor=none;points=[[0,0.5],[1,0.5]];portConstraint=eastwest;" parent="376" vertex="1">
                    <mxGeometry y="70" width="210" height="40" as="geometry"/>
                </mxCell>
                <mxCell id="381" value="title" style="shape=partialRectangle;html=1;whiteSpace=wrap;connectable=0;fillColor=none;top=0;left=0;bottom=0;right=0;overflow=hidden;" parent="380" vertex="1">
                    <mxGeometry width="118" height="40" as="geometry">
                        <mxRectangle width="118" height="40" as="alternateBounds"/>
                    </mxGeometry>
                </mxCell>
                <mxCell id="382" value="String" style="shape=partialRectangle;html=1;whiteSpace=wrap;connectable=0;fillColor=none;top=0;left=0;bottom=0;right=0;overflow=hidden;" parent="380" vertex="1">
                    <mxGeometry x="118" width="92" height="40" as="geometry">
                        <mxRectangle width="92" height="40" as="alternateBounds"/>
                    </mxGeometry>
                </mxCell>
                <mxCell id="383" value="" style="shape=tableRow;horizontal=0;startSize=0;swimlaneHead=0;swimlaneBody=0;top=0;left=0;bottom=0;right=0;collapsible=0;dropTarget=0;fillColor=none;points=[[0,0.5],[1,0.5]];portConstraint=eastwest;" parent="376" vertex="1">
                    <mxGeometry y="110" width="210" height="40" as="geometry"/>
                </mxCell>
                <mxCell id="384" value="instruction" style="shape=partialRectangle;html=1;whiteSpace=wrap;connectable=0;fillColor=none;top=0;left=0;bottom=0;right=0;overflow=hidden;" parent="383" vertex="1">
                    <mxGeometry width="118" height="40" as="geometry">
                        <mxRectangle width="118" height="40" as="alternateBounds"/>
                    </mxGeometry>
                </mxCell>
                <mxCell id="385" value="Text" style="shape=partialRectangle;html=1;whiteSpace=wrap;connectable=0;fillColor=none;top=0;left=0;bottom=0;right=0;overflow=hidden;" parent="383" vertex="1">
                    <mxGeometry x="118" width="92" height="40" as="geometry">
                        <mxRectangle width="92" height="40" as="alternateBounds"/>
                    </mxGeometry>
                </mxCell>
                <mxCell id="386" value="" style="shape=tableRow;horizontal=0;startSize=0;swimlaneHead=0;swimlaneBody=0;top=0;left=0;bottom=0;right=0;collapsible=0;dropTarget=0;fillColor=none;points=[[0,0.5],[1,0.5]];portConstraint=eastwest;" parent="376" vertex="1">
                    <mxGeometry y="150" width="210" height="40" as="geometry"/>
                </mxCell>
                <mxCell id="387" value="preparatime_time" style="shape=partialRectangle;html=1;whiteSpace=wrap;connectable=0;fillColor=none;top=0;left=0;bottom=0;right=0;overflow=hidden;" parent="386" vertex="1">
                    <mxGeometry width="118" height="40" as="geometry">
                        <mxRectangle width="118" height="40" as="alternateBounds"/>
                    </mxGeometry>
                </mxCell>
                <mxCell id="388" value="Integer" style="shape=partialRectangle;html=1;whiteSpace=wrap;connectable=0;fillColor=none;top=0;left=0;bottom=0;right=0;overflow=hidden;" parent="386" vertex="1">
                    <mxGeometry x="118" width="92" height="40" as="geometry">
                        <mxRectangle width="92" height="40" as="alternateBounds"/>
                    </mxGeometry>
                </mxCell>
                <mxCell id="389" value="" style="shape=tableRow;horizontal=0;startSize=0;swimlaneHead=0;swimlaneBody=0;top=0;left=0;bottom=0;right=0;collapsible=0;dropTarget=0;fillColor=none;points=[[0,0.5],[1,0.5]];portConstraint=eastwest;" parent="376" vertex="1">
                    <mxGeometry y="190" width="210" height="40" as="geometry"/>
                </mxCell>
                <mxCell id="390" value="serving_size" style="shape=partialRectangle;html=1;whiteSpace=wrap;connectable=0;fillColor=none;top=0;left=0;bottom=0;right=0;overflow=hidden;" parent="389" vertex="1">
                    <mxGeometry width="118" height="40" as="geometry">
                        <mxRectangle width="118" height="40" as="alternateBounds"/>
                    </mxGeometry>
                </mxCell>
                <mxCell id="391" value="Integer" style="shape=partialRectangle;html=1;whiteSpace=wrap;connectable=0;fillColor=none;top=0;left=0;bottom=0;right=0;overflow=hidden;" parent="389" vertex="1">
                    <mxGeometry x="118" width="92" height="40" as="geometry">
                        <mxRectangle width="92" height="40" as="alternateBounds"/>
                    </mxGeometry>
                </mxCell>
                <mxCell id="392" value="" style="shape=tableRow;horizontal=0;startSize=0;swimlaneHead=0;swimlaneBody=0;top=0;left=0;bottom=0;right=0;collapsible=0;dropTarget=0;fillColor=none;points=[[0,0.5],[1,0.5]];portConstraint=eastwest;" parent="376" vertex="1">
                    <mxGeometry y="230" width="210" height="40" as="geometry"/>
                </mxCell>
                <mxCell id="393" value="user_id" style="shape=partialRectangle;html=1;whiteSpace=wrap;connectable=0;fillColor=none;top=0;left=0;bottom=0;right=0;overflow=hidden;" parent="392" vertex="1">
                    <mxGeometry width="118" height="40" as="geometry">
                        <mxRectangle width="118" height="40" as="alternateBounds"/>
                    </mxGeometry>
                </mxCell>
                <mxCell id="394" value="Integer" style="shape=partialRectangle;html=1;whiteSpace=wrap;connectable=0;fillColor=none;top=0;left=0;bottom=0;right=0;overflow=hidden;" parent="392" vertex="1">
                    <mxGeometry x="118" width="92" height="40" as="geometry">
                        <mxRectangle width="92" height="40" as="alternateBounds"/>
                    </mxGeometry>
                </mxCell>
                <mxCell id="511" value="" style="edgeStyle=entityRelationEdgeStyle;fontSize=12;html=1;endArrow=ERoneToMany;exitX=1;exitY=0.5;exitDx=0;exitDy=0;entryX=0;entryY=0.5;entryDx=0;entryDy=0;" edge="1" parent="1" source="308" target="392">
                    <mxGeometry width="100" height="100" relative="1" as="geometry">
                        <mxPoint x="610" y="480" as="sourcePoint"/>
                        <mxPoint x="710" y="380" as="targetPoint"/>
                    </mxGeometry>
                </mxCell>
                <mxCell id="512" value="" style="edgeStyle=entityRelationEdgeStyle;fontSize=12;html=1;endArrow=ERoneToMany;exitX=1;exitY=0.5;exitDx=0;exitDy=0;entryX=0;entryY=0.5;entryDx=0;entryDy=0;" edge="1" parent="1" source="358" target="327">
                    <mxGeometry width="100" height="100" relative="1" as="geometry">
                        <mxPoint x="-40" y="210" as="sourcePoint"/>
                        <mxPoint x="114" y="630" as="targetPoint"/>
                    </mxGeometry>
                </mxCell>
                <mxCell id="513" value="" style="edgeStyle=entityRelationEdgeStyle;fontSize=12;html=1;endArrow=ERoneToMany;exitX=1;exitY=0.5;exitDx=0;exitDy=0;entryX=0;entryY=0.5;entryDx=0;entryDy=0;" edge="1" parent="1" source="377" target="324">
                    <mxGeometry width="100" height="100" relative="1" as="geometry">
                        <mxPoint x="309" y="140" as="sourcePoint"/>
                        <mxPoint x="450" y="282.5" as="targetPoint"/>
                    </mxGeometry>
                </mxCell>
            </root>
        </mxGraphModel>
    </diagram>
</mxfile>